<?xml version="1.0" encoding="UTF-8" standalone="no"?>
<!DOCTYPE svg PUBLIC "-//W3C//DTD SVG 1.1//EN" "http://www.w3.org/Graphics/SVG/1.1/DTD/svg11.dtd">
<svg width="100%" height="100%" viewBox="0 0 40 10" version="1.1" xmlns="http://www.w3.org/2000/svg" xmlns:xlink="http://www.w3.org/1999/xlink" xml:space="preserve" xmlns:serif="http://www.serif.com/" style="fill-rule:evenodd;clip-rule:evenodd;stroke-linejoin:round;stroke-miterlimit:2;">
    <g transform="matrix(0.172293,0,0,0.172293,-15.5364,0.625507)">
        <path d="M191.479,18.698C191.151,18.698 190.833,18.76 190.531,18.885C190.229,19.016 189.964,19.198 189.729,19.432C189.5,19.667 189.323,19.938 189.198,20.245C189.068,20.552 189.005,20.87 189.005,21.203C189.005,21.536 189.068,21.859 189.193,22.167C189.323,22.474 189.5,22.745 189.729,22.979C189.964,23.214 190.229,23.396 190.531,23.521C190.833,23.651 191.151,23.714 191.479,23.714C191.807,23.714 192.12,23.651 192.422,23.521C192.729,23.396 192.995,23.214 193.224,22.979C193.458,22.745 193.635,22.474 193.76,22.167C193.885,21.859 193.948,21.536 193.948,21.203C193.948,20.87 193.885,20.552 193.76,20.245C193.635,19.938 193.453,19.667 193.224,19.432C192.995,19.198 192.724,19.016 192.422,18.891C192.12,18.76 191.807,18.698 191.479,18.698ZM191.776,24.958L191.026,33.755L194.708,36.167L196.448,31.458L192.833,24.708C192.495,24.844 192.141,24.927 191.776,24.958ZM216.932,48.01L216.932,46.016L190.286,46.016L190.286,48.01L216.932,48.01ZM189.667,49.271C189.422,49.271 189.214,49.359 189.042,49.531C188.87,49.708 188.786,49.917 188.786,50.167C188.786,50.411 188.87,50.625 189.042,50.797C189.214,50.974 189.422,51.063 189.667,51.063L217.552,51.063C217.797,51.063 218.005,50.974 218.177,50.797C218.349,50.625 218.432,50.411 218.432,50.167C218.432,49.917 218.349,49.708 218.177,49.531C218.005,49.359 217.797,49.271 217.552,49.271L189.667,49.271ZM211.99,41.714L210.646,38.068L205.083,41.714L211.99,41.714ZM210.198,36.865L204.688,40.474L208.734,32.922L210.198,36.865ZM208.161,31.365L202.984,41.026L197.807,31.365L202.234,19.411C202.734,19.516 203.234,19.516 203.734,19.411L208.161,31.365ZM209.516,31.464L211.26,36.172L214.943,33.755L214.188,24.958C213.828,24.932 213.474,24.849 213.135,24.714L209.516,31.464ZM211.708,37.375L215.063,35.172L215.625,41.714L213.313,41.714L211.708,37.375ZM221.359,31.047L216.24,34.401L216.75,40.339L221.865,31.573C221.677,31.411 221.51,31.24 221.359,31.047ZM224.26,26.198C224.589,26.198 224.901,26.26 225.203,26.385C225.505,26.516 225.776,26.698 226.005,26.932C226.24,27.167 226.417,27.438 226.542,27.745C226.667,28.052 226.729,28.37 226.729,28.703C226.729,29.036 226.667,29.359 226.542,29.667C226.417,29.974 226.234,30.245 226.005,30.479C225.776,30.714 225.505,30.896 225.203,31.021C224.901,31.151 224.583,31.214 224.26,31.214C223.932,31.214 223.615,31.151 223.313,31.021C223.01,30.896 222.745,30.714 222.51,30.479C222.281,30.245 222.099,29.974 221.974,29.667C221.849,29.359 221.786,29.036 221.786,28.703C221.786,28.37 221.849,28.052 221.974,27.745C222.099,27.438 222.281,27.167 222.51,26.932C222.745,26.693 223.01,26.51 223.313,26.385C223.615,26.255 223.932,26.193 224.26,26.193L224.26,26.198ZM214.49,18.698C214.161,18.698 213.844,18.76 213.542,18.891C213.24,19.016 212.974,19.198 212.74,19.432C212.51,19.667 212.333,19.943 212.203,20.25C212.078,20.557 212.016,20.875 212.016,21.208C212.016,21.542 212.078,21.859 212.203,22.167C212.333,22.474 212.51,22.745 212.74,22.984C212.974,23.219 213.24,23.401 213.542,23.526C213.844,23.651 214.161,23.719 214.49,23.719C214.818,23.719 215.13,23.651 215.432,23.526C215.734,23.396 216.005,23.219 216.234,22.979C216.469,22.745 216.646,22.474 216.771,22.167C216.896,21.859 216.958,21.542 216.958,21.208C216.958,20.875 216.896,20.557 216.771,20.25C216.646,19.943 216.469,19.667 216.234,19.432C216.005,19.198 215.734,19.016 215.432,18.891C215.13,18.76 214.818,18.698 214.49,18.698ZM190.344,41.714L190.901,35.172L194.26,37.375L192.651,41.714L190.344,41.714ZM193.974,41.714L200.885,41.714L195.323,38.068L193.974,41.714ZM189.667,42.969C189.411,42.953 189.198,43.036 189.01,43.214C188.828,43.391 188.734,43.604 188.734,43.865C188.734,44.12 188.828,44.339 189.01,44.516C189.198,44.693 189.411,44.771 189.667,44.755L217.552,44.755C217.807,44.771 218.026,44.693 218.208,44.516C218.391,44.339 218.484,44.12 218.484,43.865C218.484,43.604 218.391,43.391 218.208,43.214C218.026,43.036 217.807,42.953 217.552,42.969L189.667,42.969ZM195.771,36.87L197.229,32.922L201.276,40.479L195.771,36.87ZM202.984,13.219C202.656,13.219 202.339,13.281 202.036,13.411C201.734,13.536 201.469,13.719 201.234,13.953C201.005,14.188 200.828,14.464 200.703,14.771C200.578,15.078 200.516,15.396 200.516,15.729C200.516,16.063 200.578,16.38 200.703,16.688C200.828,16.995 201.005,17.266 201.234,17.5C201.469,17.74 201.734,17.917 202.036,18.047C202.339,18.172 202.656,18.234 202.984,18.234C203.313,18.234 203.625,18.172 203.927,18.047C204.229,17.917 204.5,17.74 204.729,17.5C204.964,17.266 205.141,16.995 205.266,16.688C205.391,16.38 205.453,16.063 205.453,15.729C205.453,15.396 205.391,15.078 205.266,14.771C205.141,14.458 204.964,14.188 204.729,13.953C204.5,13.719 204.229,13.536 203.927,13.411C203.625,13.281 203.313,13.219 202.984,13.219ZM189.219,40.339L189.729,34.401L184.609,31.047C184.458,31.24 184.286,31.417 184.104,31.573L189.219,40.339ZM181.708,26.193C182.036,26.193 182.354,26.26 182.656,26.385C182.958,26.516 183.224,26.693 183.453,26.927C183.688,27.167 183.865,27.438 183.99,27.745C184.115,28.052 184.177,28.37 184.177,28.703C184.177,29.036 184.115,29.354 183.99,29.661C183.865,29.969 183.688,30.24 183.453,30.474C183.224,30.714 182.958,30.891 182.656,31.021C182.354,31.146 182.036,31.214 181.708,31.214C181.38,31.214 181.068,31.146 180.766,31.021C180.458,30.891 180.193,30.714 179.964,30.474C179.729,30.24 179.552,29.969 179.427,29.661C179.302,29.354 179.24,29.036 179.24,28.703C179.24,28.37 179.302,28.052 179.427,27.745C179.552,27.438 179.729,27.167 179.964,26.927C180.193,26.693 180.458,26.51 180.766,26.385C181.068,26.255 181.38,26.193 181.708,26.193Z" style="fill:rgb(204,173,96);"/>
    </g>
    <g transform="matrix(0.172293,0,0,0.172293,-15.5364,0.625507)">
        <path d="M239.453,5.479C239.125,5.479 238.807,5.542 238.505,5.672C238.203,5.797 237.938,5.979 237.703,6.214C237.474,6.448 237.292,6.719 237.167,7.026C237.042,7.333 236.979,7.656 236.979,7.99C236.979,8.323 237.042,8.641 237.167,8.948C237.292,9.255 237.474,9.526 237.703,9.76C237.938,10 238.203,10.177 238.505,10.307C238.807,10.432 239.125,10.495 239.453,10.495C239.781,10.495 240.094,10.432 240.396,10.307C240.698,10.177 240.969,9.995 241.198,9.76C241.432,9.526 241.609,9.255 241.734,8.948C241.859,8.641 241.922,8.323 241.922,7.99C241.922,7.656 241.859,7.333 241.734,7.031C241.609,6.724 241.427,6.453 241.198,6.214C240.964,5.979 240.698,5.802 240.396,5.672C240.094,5.547 239.781,5.479 239.453,5.479ZM239.75,11.74L238.995,20.536L242.677,22.948L244.422,18.245L240.802,11.495C240.464,11.625 240.115,11.708 239.75,11.74ZM264.906,34.797L264.906,32.797L238.26,32.797L238.26,34.797L264.906,34.797ZM237.641,36.052C237.396,36.052 237.188,36.141 237.016,36.318C236.844,36.49 236.76,36.703 236.76,36.948C236.76,37.198 236.844,37.406 237.016,37.583C237.188,37.755 237.396,37.844 237.641,37.844L265.526,37.844C265.771,37.844 265.974,37.755 266.151,37.583C266.323,37.406 266.406,37.198 266.406,36.948C266.406,36.703 266.323,36.49 266.151,36.318C265.974,36.141 265.771,36.052 265.526,36.052L237.641,36.052ZM259.964,28.495L258.615,24.854L253.057,28.495L259.964,28.495ZM258.172,23.651L252.661,27.26L256.708,19.703L258.172,23.651ZM256.135,18.151L250.958,27.807L245.781,18.151L250.208,6.198C250.708,6.302 251.208,6.302 251.708,6.198L256.135,18.151ZM257.49,18.245L259.234,22.953L262.917,20.542L262.161,11.745C261.797,11.714 261.448,11.63 261.109,11.495L257.49,18.245ZM259.682,24.156L263.036,21.958L263.599,28.495L261.286,28.495L259.682,24.156ZM269.333,17.833L264.214,21.188L264.724,27.12L269.839,18.354C269.651,18.198 269.484,18.021 269.333,17.828L269.333,17.833ZM272.234,12.979C272.557,12.979 272.875,13.042 273.177,13.172C273.479,13.297 273.745,13.479 273.979,13.714C274.208,13.948 274.391,14.219 274.516,14.526C274.641,14.833 274.703,15.156 274.703,15.49C274.703,15.823 274.641,16.141 274.516,16.448C274.391,16.755 274.208,17.026 273.979,17.26C273.745,17.495 273.479,17.677 273.177,17.807C272.875,17.932 272.557,17.995 272.229,17.995C271.906,17.995 271.589,17.932 271.286,17.807C270.984,17.677 270.719,17.495 270.484,17.26C270.255,17.026 270.073,16.755 269.948,16.448C269.823,16.141 269.76,15.818 269.76,15.49C269.76,15.156 269.823,14.833 269.948,14.526C270.073,14.219 270.255,13.948 270.484,13.714C270.719,13.479 270.984,13.297 271.286,13.167C271.589,13.042 271.906,12.979 272.234,12.979ZM262.464,5.484C262.135,5.484 261.818,5.547 261.516,5.672C261.214,5.802 260.948,5.984 260.714,6.219C260.484,6.453 260.302,6.724 260.177,7.031C260.052,7.339 259.99,7.656 259.99,7.99C259.99,8.323 260.052,8.646 260.177,8.953C260.302,9.26 260.484,9.531 260.714,9.766C260.948,10 261.214,10.182 261.516,10.307C261.818,10.438 262.135,10.5 262.464,10.5C262.792,10.5 263.104,10.438 263.406,10.307C263.708,10.182 263.979,10 264.208,9.766C264.443,9.531 264.62,9.26 264.745,8.953C264.87,8.646 264.932,8.323 264.932,7.99C264.932,7.656 264.87,7.339 264.745,7.031C264.62,6.724 264.438,6.453 264.208,6.219C263.974,5.979 263.708,5.802 263.406,5.672C263.104,5.547 262.792,5.479 262.464,5.479L262.464,5.484ZM238.313,28.495L238.875,21.958L242.234,24.156L240.625,28.495L238.313,28.495ZM241.948,28.495L248.854,28.495L243.297,24.854L241.948,28.495ZM237.641,29.75C237.385,29.74 237.167,29.818 236.984,29.995C236.802,30.172 236.708,30.391 236.708,30.646C236.708,30.906 236.802,31.12 236.984,31.297C237.167,31.474 237.385,31.557 237.641,31.542L265.526,31.542C265.776,31.557 265.995,31.474 266.182,31.297C266.365,31.12 266.458,30.906 266.458,30.646C266.458,30.391 266.365,30.172 266.182,29.995C265.995,29.818 265.776,29.74 265.526,29.75L237.641,29.75ZM243.745,23.651L245.203,19.703L249.25,27.26L243.745,23.651ZM250.958,0.005C250.63,0.005 250.313,0.068 250.01,0.193C249.708,0.323 249.443,0.505 249.208,0.74C248.979,0.974 248.802,1.245 248.672,1.552C248.547,1.859 248.484,2.177 248.484,2.51C248.484,2.844 248.547,3.167 248.672,3.474C248.802,3.776 248.979,4.052 249.208,4.286C249.443,4.521 249.708,4.703 250.01,4.828C250.313,4.958 250.63,5.021 250.958,5.021C251.286,5.021 251.599,4.958 251.901,4.828C252.203,4.703 252.474,4.521 252.703,4.286C252.938,4.052 253.115,3.776 253.24,3.469C253.365,3.161 253.427,2.844 253.427,2.51C253.427,2.177 253.365,1.859 253.24,1.552C253.115,1.245 252.932,0.974 252.703,0.74C252.474,0.5 252.203,0.323 251.901,0.193C251.599,0.063 251.286,0 250.958,0L250.958,0.005ZM237.193,27.12L237.698,21.182L232.578,17.833C232.427,18.021 232.26,18.198 232.078,18.359L237.193,27.12ZM229.682,12.979C230.01,12.979 230.323,13.042 230.625,13.167C230.932,13.297 231.198,13.479 231.427,13.714C231.661,13.948 231.839,14.219 231.964,14.526C232.089,14.833 232.151,15.151 232.151,15.484C232.151,15.818 232.089,16.141 231.964,16.448C231.839,16.755 231.661,17.026 231.427,17.26C231.198,17.495 230.932,17.677 230.625,17.802C230.323,17.932 230.01,17.995 229.682,17.995C229.354,17.995 229.036,17.932 228.734,17.802C228.432,17.677 228.167,17.495 227.938,17.26C227.703,17.026 227.526,16.755 227.401,16.448C227.276,16.141 227.214,15.818 227.214,15.484C227.214,15.151 227.276,14.833 227.401,14.526C227.526,14.219 227.703,13.948 227.938,13.714C228.167,13.479 228.432,13.297 228.734,13.167C229.036,13.042 229.354,12.979 229.682,12.979Z" style="fill:rgb(204,173,96);"/>
    </g>
    <g transform="matrix(0.172293,0,0,0.172293,-15.5364,0.625507)">
        <path d="M143.505,5.479C143.177,5.479 142.865,5.542 142.563,5.672C142.255,5.797 141.99,5.979 141.76,6.214C141.526,6.448 141.349,6.719 141.224,7.026C141.099,7.333 141.036,7.656 141.036,7.99C141.036,8.323 141.099,8.641 141.224,8.948C141.349,9.255 141.526,9.526 141.76,9.76C141.99,10 142.255,10.177 142.557,10.307C142.865,10.432 143.177,10.495 143.505,10.495C143.833,10.495 144.146,10.432 144.453,10.307C144.755,10.177 145.021,9.995 145.25,9.76C145.484,9.526 145.661,9.255 145.786,8.948C145.911,8.641 145.974,8.323 145.974,7.99C145.974,7.656 145.911,7.333 145.786,7.031C145.661,6.724 145.484,6.453 145.25,6.214C145.021,5.979 144.75,5.802 144.448,5.672C144.146,5.547 143.833,5.479 143.505,5.479ZM143.807,11.74L143.052,20.536L146.734,22.948L148.479,18.245L144.859,11.495C144.521,11.625 144.167,11.708 143.807,11.74ZM168.958,34.797L168.958,32.797L142.313,32.797L142.313,34.797L168.958,34.797ZM141.693,36.052C141.453,36.052 141.245,36.141 141.073,36.318C140.896,36.49 140.813,36.703 140.813,36.948C140.813,37.198 140.896,37.406 141.073,37.583C141.245,37.755 141.453,37.844 141.693,37.844L169.578,37.844C169.823,37.844 170.031,37.755 170.203,37.583C170.375,37.406 170.464,37.198 170.464,36.948C170.464,36.703 170.375,36.49 170.203,36.318C170.031,36.141 169.823,36.052 169.578,36.052L141.693,36.052ZM164.021,28.495L162.672,24.854L157.109,28.495L164.021,28.495ZM162.224,23.651L156.714,27.26L160.76,19.703L162.224,23.651ZM160.188,18.151L155.01,27.807L149.833,18.151L154.26,6.198C154.76,6.302 155.26,6.302 155.76,6.198L160.188,18.151ZM161.547,18.245L163.286,22.953L166.969,20.542L166.219,11.745C165.854,11.714 165.5,11.63 165.161,11.495L161.547,18.245ZM163.734,24.156L167.094,21.958L167.651,28.495L165.344,28.495L163.734,24.156ZM173.385,17.833L168.271,21.188L168.776,27.12L173.891,18.354C173.708,18.198 173.536,18.021 173.385,17.828L173.385,17.833ZM176.286,12.979C176.615,12.979 176.927,13.042 177.229,13.172C177.536,13.297 177.802,13.479 178.031,13.714C178.266,13.948 178.443,14.219 178.568,14.526C178.693,14.833 178.755,15.156 178.755,15.49C178.755,15.823 178.693,16.141 178.568,16.448C178.443,16.755 178.266,17.026 178.031,17.26C177.802,17.495 177.531,17.677 177.229,17.807C176.927,17.932 176.615,17.995 176.286,17.995C175.958,17.995 175.641,17.932 175.339,17.807C175.036,17.677 174.771,17.495 174.536,17.26C174.307,17.026 174.13,16.755 174.005,16.448C173.88,16.141 173.818,15.818 173.818,15.49C173.818,15.156 173.88,14.833 174.005,14.526C174.13,14.219 174.307,13.948 174.536,13.714C174.771,13.479 175.036,13.297 175.339,13.167C175.641,13.042 175.958,12.979 176.286,12.979ZM166.516,5.484C166.188,5.484 165.875,5.547 165.568,5.672C165.266,5.802 165,5.984 164.771,6.219C164.536,6.453 164.359,6.724 164.234,7.031C164.109,7.339 164.047,7.656 164.047,7.99C164.047,8.323 164.109,8.646 164.234,8.953C164.359,9.26 164.536,9.531 164.766,9.766C165,10 165.266,10.182 165.568,10.307C165.875,10.438 166.188,10.5 166.516,10.5C166.844,10.5 167.156,10.438 167.464,10.307C167.766,10.182 168.031,10 168.26,9.766C168.495,9.531 168.672,9.26 168.797,8.953C168.922,8.646 168.984,8.323 168.984,7.99C168.984,7.656 168.922,7.339 168.797,7.031C168.672,6.724 168.495,6.453 168.26,6.219C168.031,5.979 167.766,5.802 167.464,5.672C167.156,5.547 166.844,5.479 166.516,5.479L166.516,5.484ZM142.37,28.495L142.927,21.958L146.286,24.156L144.682,28.495L142.37,28.495ZM146,28.495L152.911,28.495L147.349,24.854L146,28.495ZM141.693,29.75C141.443,29.74 141.224,29.818 141.036,29.995C140.854,30.172 140.76,30.391 140.76,30.646C140.76,30.906 140.854,31.12 141.036,31.297C141.224,31.474 141.443,31.557 141.693,31.542L169.578,31.542C169.833,31.557 170.052,31.474 170.234,31.297C170.417,31.12 170.51,30.906 170.51,30.646C170.51,30.391 170.417,30.172 170.234,29.995C170.052,29.818 169.833,29.74 169.578,29.75L141.693,29.75ZM147.797,23.651L149.26,19.703L153.307,27.26L147.797,23.651ZM155.01,0.005C154.682,0.005 154.37,0.068 154.068,0.193C153.76,0.323 153.495,0.505 153.266,0.74C153.031,0.974 152.854,1.245 152.729,1.552C152.604,1.859 152.542,2.177 152.542,2.51C152.542,2.844 152.604,3.167 152.729,3.474C152.854,3.776 153.031,4.052 153.266,4.286C153.495,4.521 153.76,4.703 154.068,4.828C154.37,4.958 154.682,5.021 155.01,5.021C155.339,5.021 155.651,4.958 155.958,4.828C156.26,4.703 156.526,4.521 156.755,4.286C156.99,4.052 157.167,3.776 157.292,3.469C157.417,3.161 157.479,2.844 157.479,2.51C157.479,2.177 157.417,1.859 157.292,1.552C157.167,1.245 156.99,0.974 156.755,0.74C156.526,0.5 156.26,0.323 155.958,0.193C155.651,0.063 155.339,0 155.01,0L155.01,0.005ZM141.245,27.12L141.755,21.182L136.635,17.833C136.484,18.021 136.318,18.198 136.13,18.359L141.245,27.12ZM133.734,12.979C134.063,12.979 134.38,13.042 134.682,13.167C134.984,13.297 135.25,13.479 135.484,13.714C135.714,13.948 135.891,14.219 136.021,14.526C136.146,14.833 136.208,15.151 136.208,15.484C136.208,15.818 136.146,16.141 136.021,16.448C135.891,16.755 135.714,17.026 135.484,17.26C135.25,17.495 134.984,17.677 134.682,17.802C134.38,17.932 134.063,17.995 133.734,17.995C133.406,17.995 133.094,17.932 132.792,17.802C132.49,17.677 132.219,17.495 131.99,17.26C131.755,17.026 131.578,16.755 131.453,16.448C131.328,16.141 131.266,15.818 131.266,15.484C131.266,15.151 131.328,14.833 131.453,14.526C131.578,14.219 131.755,13.948 131.99,13.714C132.219,13.479 132.49,13.297 132.792,13.167C133.094,13.042 133.406,12.979 133.734,12.979Z" style="fill:rgb(204,173,96);"/>
    </g>
</svg>
